<svg height="512pt" viewBox="-61 0 512 512" width="512pt" xmlns="http://www.w3.org/2000/svg"><path d="m60 361h105v30h-105zm0 0" fill="#c5d3dd"/><path d="m225 361h105v30h-105zm0 0" fill="#9facba"/><path d="m150 0v512h90v-512zm0 0" fill="#575f64"/><path d="m195 0h45v512h-45zm0 0" fill="#32393f"/><path d="m330 481c-33.089844 0-60-26.910156-60-60s26.910156-60 60-60 60 26.910156 60 60-26.910156 60-60 60zm0 0" fill="#32393f"/><path d="m330 451c-16.539062 0-30-13.460938-30-30s13.460938-30 30-30 30 13.460938 30 30-13.460938 30-30 30zm0 0" fill="#61d7a8"/><path d="m60 481c-33.089844 0-60-26.910156-60-60s26.910156-60 60-60 60 26.910156 60 60-26.910156 60-60 60zm0 0" fill="#575f64"/><path d="m60 451c-16.539062 0-30-13.460938-30-30s13.460938-30 30-30 30 13.460938 30 30-13.460938 30-30 30zm0 0" fill="#e63950"/><path d="m195 102.398438-98.699219-98.699219-63.601562 63.601562 261 261 63.601562-63.601562zm0 0" fill="#ebae56"/><path d="m357.300781 264.699219-63.601562 63.601562-98.699219-98.699219v-127.203124zm0 0" fill="#cc9249"/><path d="m293.699219 3.699219-261 261 63.601562 63.601562 261-261zm0 0" fill="#fbc56d"/><path d="m357.300781 67.300781-162.300781 162.300781v-127.203124l98.699219-98.699219zm0 0" fill="#ebae56"/></svg>